HIERARCHY
ROOT SimulationBone
{
	OFFSET 0.000000 0.000000 0.000000
	CHANNELS 6 Xposition Yposition Zposition Zrotation Yrotation Xrotation 
	JOINT Hips
	{
		OFFSET 0.000000 0.000000 0.000000
		CHANNELS 6 Xposition Yposition Zposition Zrotation Yrotation Xrotation 
		JOINT RightUpLeg
		{
			OFFSET 0.103457 1.857818 10.548502
			CHANNELS 3 Zrotation Yrotation Xrotation
			JOINT RightLeg
			{
				OFFSET 43.500000 -0.000011 -0.000004
				CHANNELS 3 Zrotation Yrotation Xrotation
				JOINT RightFoot
				{
					OFFSET 42.372192 -0.000004 -0.000008
					CHANNELS 3 Zrotation Yrotation Xrotation
					JOINT RightToe
					{
						OFFSET 17.300014 0.000006 0.000001
						CHANNELS 3 Zrotation Yrotation Xrotation
						End Site
						{
							OFFSET 0.000000 0.000000 0.000000
						}
					}
				}
			}
		}
		JOINT LeftUpLeg
		{
			OFFSET 0.103457 1.857817 -10.548505
			CHANNELS 3 Zrotation Yrotation Xrotation
			JOINT LeftLeg
			{
				OFFSET 43.500046 -0.000004 0.000011
				CHANNELS 3 Zrotation Yrotation Xrotation
				JOINT LeftFoot
				{
					OFFSET 42.372257 0.000000 0.000015
					CHANNELS 3 Zrotation Yrotation Xrotation
					JOINT LeftToe
					{
						OFFSET 17.300003 -0.000000 0.000002
						CHANNELS 3 Zrotation Yrotation Xrotation
						End Site
						{
							OFFSET 0.000000 0.000000 0.000000
						}
					}
				}
			}
		}
		JOINT Spine
		{
			OFFSET 6.901961 -2.603721 -0.000001
			CHANNELS 3 Zrotation Yrotation Xrotation
			JOINT Spine1
			{
				OFFSET 12.588108 0.000002 -0.000001
				CHANNELS 3 Zrotation Yrotation Xrotation
				JOINT Spine2
				{
					OFFSET 12.343199 -0.000020 0.000006
					CHANNELS 3 Zrotation Yrotation Xrotation
					JOINT Neck
					{
						OFFSET 25.832905 0.000017 0.000000
						CHANNELS 3 Zrotation Yrotation Xrotation
						JOINT Head
						{
							OFFSET 11.766604 -0.000006 0.000004
							CHANNELS 3 Zrotation Yrotation Xrotation
							End Site
							{
								OFFSET 0.000000 0.000000 0.000000
							}
						}
					}
					JOINT RightShoulder
					{
						OFFSET 19.745903 -1.480350 6.000100
						CHANNELS 3 Zrotation Yrotation Xrotation
						JOINT RightArm
						{
							OFFSET 11.284130 -0.000016 -0.000016
							CHANNELS 3 Zrotation Yrotation Xrotation
							JOINT RightForeArm
							{
								OFFSET 33.000046 0.000004 0.000031
								CHANNELS 3 Zrotation Yrotation Xrotation
								JOINT RightHand
								{
									OFFSET 25.199999 0.000027 0.000001
									CHANNELS 3 Zrotation Yrotation Xrotation
									End Site
									{
										OFFSET 0.000000 0.000000 0.000000
									}
								}
							}
						}
					}
					JOINT LeftShoulder
					{
						OFFSET 19.746094 -1.480375 -6.000080
						CHANNELS 3 Zrotation Yrotation Xrotation
						JOINT LeftArm
						{
							OFFSET 11.284131 -0.000016 -0.000017
							CHANNELS 3 Zrotation Yrotation Xrotation
							JOINT LeftForeArm
							{
								OFFSET 33.000095 0.000009 0.000020
								CHANNELS 3 Zrotation Yrotation Xrotation
								JOINT LeftHand
								{
									OFFSET 25.199789 0.000132 0.000423
									CHANNELS 3 Zrotation Yrotation Xrotation
									End Site
									{
										OFFSET 0.000000 0.000000 0.000000
									}
								}
							}
						}
					}
				}
			}
		}
	}
}
MOTION
Frames: 15
Frame Time: 0.033333
-339.773221 0.000000 -443.473323 0.000000 -27.551360 0.000000 -5.894149 88.628036 -1.618744 83.919839 -1.180802 173.084435 135.961992 -4.321303 176.642462 -66.981049 1.184719 -6.166783 74.965260 3.323124 -3.680329 21.454558 0.003108 0.000018 179.430272 -1.933104 174.514188 -22.844042 4.708010 2.133041 93.465627 -2.249583 -5.650822 21.454551 -0.003095 0.000000 9.543958 0.767667 0.791201 9.086381 1.470888 1.640327 8.768285 1.480634 1.631412 5.570762 6.607343 -1.696805 -22.784890 -11.302762 3.872083 -160.367555 -72.745408 -21.560899 15.197605 59.580205 40.043702 -50.803077 -14.527701 1.775122 0.016877 -17.137382 21.965521 167.785605 78.980988 -10.871270 -35.423837 -57.708562 14.432825 -83.620326 7.553002 -2.552248 -7.309421 7.750618 -41.905304 
-336.302760 0.000000 -441.444294 0.000000 -29.244346 0.000000 -6.222747 87.906281 -2.034612 83.244734 -2.268621 173.252822 134.412222 -3.306904 177.759894 -60.575677 0.691758 -3.373522 76.117431 1.481596 -3.318318 21.454557 0.003101 0.000017 -179.050950 -0.008197 173.394051 -23.046356 4.896734 1.911595 95.105746 -1.974919 -5.206594 21.454551 -0.003086 0.000001 9.731116 0.445533 1.230954 9.458227 0.789014 2.494215 9.140417 0.803923 2.489403 4.968170 5.200844 -2.347484 -23.566757 -9.859750 2.502501 -157.402625 -72.539491 -24.609096 20.458793 57.568707 42.790688 -55.742065 -14.325786 1.930111 -1.337811 -15.569228 23.407268 161.455386 80.046832 -17.251770 -35.585149 -58.271527 19.476966 -93.248106 3.767586 -2.712815 -7.993935 7.318431 -41.677415 
-332.664117 0.000000 -439.231113 0.000000 -30.960199 0.000000 -6.531405 86.975723 -2.363624 82.749337 -3.450781 174.313724 133.855028 -1.449798 -179.999759 -54.813627 0.165506 -1.962087 78.208118 0.574438 -3.252627 21.454560 0.003117 0.000016 -177.132596 1.865099 172.793951 -23.476765 4.863935 1.965092 96.686635 -1.876094 -4.623209 21.454550 -0.003096 0.000000 9.901662 0.103589 1.544693 9.791529 0.076142 3.092544 9.473948 0.094665 3.092020 4.799018 3.570853 -3.015921 -23.995759 -8.229503 0.915255 -156.160883 -72.810192 -25.878494 23.657900 56.142888 43.166198 -60.053086 -13.872714 2.056393 -1.995759 -13.035437 24.090670 156.919976 80.595146 -21.819533 -34.683991 -58.737516 20.909337 -101.373900 2.612768 -2.993097 -8.421430 7.395193 -41.879401 
-328.852753 0.000000 -436.815017 0.000000 -32.686356 0.000000 -6.833921 85.890633 -2.589712 82.379686 -4.586127 176.159118 134.102363 0.728107 -177.341012 -51.095385 -0.374062 -2.534067 79.277234 0.984780 -3.431832 21.454557 0.003108 0.000017 -175.124807 3.275210 172.605424 -24.701354 4.408065 2.308132 97.453931 -1.977080 -3.679268 21.454548 -0.003093 0.000000 10.020759 -0.218208 1.699494 10.020228 -0.582729 3.373682 9.702716 -0.562492 3.377123 4.854773 2.197432 -3.618089 -23.875128 -6.973443 -0.464409 -156.386484 -73.336322 -25.636213 24.556308 55.452113 41.737312 -63.276628 -13.324073 2.141698 -2.233480 -10.728325 24.872448 157.073218 80.738676 -21.657072 -32.500704 -59.339652 20.200513 -107.221812 1.919388 -3.201654 -9.777936 8.519400 -42.308439 
-324.877036 0.000000 -434.184389 0.000000 -34.399826 0.000000 -7.140951 84.746429 -2.734077 82.041487 -5.359116 178.089098 135.101565 2.432103 -176.274601 -50.214236 -0.389503 -4.331259 80.580454 2.453447 -2.779972 21.454557 0.003093 0.000017 -174.424931 3.671294 172.395573 -28.917805 3.437659 3.017502 95.958222 -2.347093 -2.230578 21.454557 -0.003090 -0.000000 10.064733 -0.500480 1.731927 10.099972 -1.150181 3.413645 9.782430 -1.129697 3.420510 5.123255 1.496535 -3.974135 -23.480993 -6.177013 -1.309578 -156.877861 -73.532225 -25.128295 22.870702 55.261708 38.903900 -65.568839 -12.821991 2.197055 -1.949496 -9.542769 25.982103 160.840710 80.583364 -17.850494 -29.351789 -60.176863 17.097382 -109.347019 1.810738 -3.286274 -12.792519 11.489830 -42.230131 
-320.760021 0.000000 -431.341190 0.000000 -36.063523 0.000000 -7.739899 83.170540 -2.877392 81.773904 -6.598932 179.403400 136.247425 3.578802 -177.847334 -53.036818 -0.114246 -5.122306 84.557715 2.431379 -5.910497 21.454563 0.003117 0.000017 -176.067647 4.270796 172.115084 -37.751306 2.275688 3.477768 92.048287 -2.481706 -0.435401 21.454551 -0.003091 -0.000002 10.074118 -0.970235 1.583571 10.109140 -2.075024 3.076706 9.791305 -2.056551 3.089164 5.808180 1.537051 -3.880530 -23.342496 -5.662360 -1.450029 -157.184878 -73.063312 -24.822610 19.154890 55.021794 35.049993 -67.244736 -12.419729 2.236219 -0.531669 -9.436417 26.670912 164.420057 80.115687 -14.243741 -25.902731 -61.383532 13.116093 -106.703899 2.131762 -3.193892 -15.396589 14.799780 -42.185069 
-316.517040 0.000000 -428.315439 0.000000 -37.650168 0.000000 -8.528806 81.221336 -3.008932 81.822382 -8.469610 -179.847299 137.144297 4.713505 179.033656 -58.655827 0.584721 -4.285295 91.523476 1.933388 -7.217962 21.454557 0.003109 0.000018 179.475979 5.421798 172.351259 -52.236727 1.251188 3.080703 83.932390 -2.144392 0.029649 21.454553 -0.003092 -0.000002 10.131314 -1.656444 1.209468 10.220465 -3.413133 2.268746 9.902021 -3.399498 2.289314 7.028454 2.028225 -3.322090 -23.763541 -5.457589 -0.897761 -158.538963 -72.333384 -23.445610 13.871084 54.524003 30.161798 -68.257291 -12.224267 2.263596 1.994211 -9.752547 26.531784 166.193802 79.394010 -12.472592 -23.528079 -63.105402 10.743911 -99.286546 2.949040 -2.924076 -14.009391 15.240152 -44.091303 
-312.163604 0.000000 -425.143647 0.000000 -39.142486 0.000000 -9.073379 79.502548 -3.032428 82.413754 -10.181780 -179.087403 139.263719 5.445797 176.232172 -63.463474 0.555135 -3.662328 96.975572 1.804187 -6.944993 21.454562 0.003106 0.000017 174.228263 6.374802 173.101049 -68.546891 -0.373637 3.109084 75.257688 -0.836079 4.504708 21.454551 -0.003091 -0.000002 10.284102 -2.318557 0.686991 10.540335 -4.689889 1.160577 10.221160 -4.682928 1.188924 8.386625 2.482898 -2.578492 -24.489664 -5.585302 -0.004989 -162.126684 -71.928306 -19.763706 6.441399 53.673208 24.023404 -68.245085 -12.413020 2.276096 4.526044 -9.820758 26.119016 167.502316 78.470261 -11.177620 -23.285086 -65.114447 9.831471 -88.069695 5.833088 -2.627623 -8.834510 12.563207 -49.771708 
-307.720659 0.000000 -421.840980 0.000000 -40.534361 0.000000 -9.247993 78.261383 -2.944563 83.303592 -10.713505 -177.922573 143.246088 5.782901 174.934177 -66.348751 0.668158 -3.111975 102.179200 1.713411 -6.789898 21.454560 0.003110 0.000017 168.548305 5.577699 174.502741 -83.799243 -1.968772 3.843240 69.580769 -1.043469 4.660843 21.454570 -0.003093 0.000000 10.482166 -2.656210 0.203938 10.959679 -5.319613 0.155085 10.640087 -5.318715 0.187290 9.061818 2.604026 -2.020657 -25.006352 -5.686306 0.651640 -167.187526 -71.832403 -14.559207 -3.422705 52.009493 17.281487 -67.634808 -12.931000 2.287100 5.982163 -9.130672 26.662600 169.779720 77.302134 -8.900504 -22.950569 -66.679524 5.948538 -75.242614 12.020912 -2.503195 -3.672958 11.183938 -53.963907 
-303.204225 0.000000 -418.418774 0.000000 -41.823707 0.000000 -9.301593 77.641922 -2.700147 83.822154 -10.263158 -176.319826 148.284636 5.532593 174.984201 -66.912884 0.677898 -2.445170 106.755802 1.517428 -6.615080 21.454555 0.003108 0.000016 161.732459 3.956102 176.700614 -95.706407 -3.037457 5.040969 72.304082 -2.073902 4.337071 21.454562 -0.003085 -0.000006 10.606227 -2.653097 -0.185085 11.226010 -5.275528 -0.627829 10.906442 -5.279355 -0.595880 8.633500 2.586013 -1.684751 -25.174081 -5.500709 0.943856 -171.522784 -71.995597 -10.100106 -14.010895 49.954501 10.973101 -68.437608 -13.300294 2.345098 6.104901 -7.595406 29.983714 173.601293 75.902212 -5.045012 -16.239068 -67.519384 -1.814390 -65.003949 15.003919 -2.290544 0.069849 12.629819 -50.785564 
-298.621245 0.000000 -414.879093 0.000000 -43.013670 0.000000 -9.298033 77.867279 -2.361547 83.563118 -9.467040 -174.661778 153.865475 4.998595 175.605516 -64.668047 0.585585 -1.841645 109.529002 1.271681 -6.496318 21.454560 0.003105 0.000016 153.541341 2.131393 179.108092 -103.298114 -3.433523 5.865600 74.833636 -3.131960 3.016596 21.454560 -0.003089 0.000002 10.557165 -2.440197 -0.594364 11.141272 -4.811643 -1.422540 10.822057 -4.820286 -1.393406 7.448512 2.875863 -1.124657 -25.108325 -5.472861 1.584967 -174.076564 -72.880208 -7.480789 -22.482908 49.420807 4.666385 -72.876049 -12.581670 2.479040 5.135225 -5.959956 36.601956 178.833013 74.670879 0.275093 -1.514858 -66.398837 -16.226048 -61.054733 14.599881 -2.110691 3.036506 15.481498 -41.513733 
-293.979662 0.000000 -411.195836 -0.000000 -44.099676 0.000000 -9.112829 78.846138 -2.002666 82.776518 -8.243762 -173.384403 160.358089 3.876999 176.494725 -59.209872 0.117869 -1.417376 110.745596 1.074971 -6.492337 21.454557 0.003104 0.000017 144.882437 0.810810 -178.591921 -105.875104 -3.383263 6.297699 74.654227 -3.705299 2.168280 21.454551 -0.003092 0.000003 10.332865 -2.014226 -1.172999 10.702381 -3.911150 -2.528922 10.383810 -3.926486 -2.505247 6.086641 3.756826 0.164169 -24.645522 -6.355614 3.456341 -175.015579 -74.509598 -6.531809 -26.921986 51.579300 -2.137289 -80.875922 -9.537232 2.610202 3.075371 -5.629666 42.137254 -175.382510 74.342491 6.194392 13.740975 -62.551528 -32.406601 -62.696697 12.994598 -2.063458 4.319517 17.642083 -33.396418 
-289.277406 0.000000 -407.324263 0.000000 -45.067654 0.000000 -8.668134 80.409592 -1.641039 81.878554 -6.354285 -172.725830 167.487303 1.934995 177.402880 -51.504032 -0.623957 -1.313595 108.510901 0.919279 -6.754185 21.454557 0.003112 0.000018 137.097729 -0.445205 -176.816467 -103.533093 -2.737961 5.090685 75.128686 -2.365803 4.016210 21.454548 -0.003092 0.000000 10.019663 -1.338869 -1.912946 10.072042 -2.506044 -3.936105 9.754417 -2.529879 -3.920937 4.780163 5.337060 2.111811 -23.708244 -8.476248 6.614431 -174.596765 -76.018899 -6.973927 -26.940411 55.305896 -7.286203 -89.950108 -4.254003 2.642045 -0.856667 -7.911694 40.764283 -170.349986 75.259532 11.352763 23.898477 -57.713015 -44.283832 -66.571887 11.478100 -2.110168 3.582268 17.859778 -31.570313 
-284.529910 0.000000 -403.238744 0.000000 -45.912832 0.000000 -8.017994 82.349922 -1.307898 80.998944 -4.357121 -172.795543 174.273547 -0.353300 177.427469 -43.672530 -1.565994 -1.553697 100.892897 0.718496 -6.304876 21.454557 0.003112 0.000017 131.302696 -1.622804 -175.434406 -96.859199 -1.532705 3.353507 76.912199 -1.740455 2.247111 21.454550 -0.003096 0.000001 9.755118 -0.579436 -2.602672 9.519382 -0.942749 -5.244275 9.202683 -0.974484 -5.238522 3.127562 7.784654 4.111523 -22.628082 -11.586639 10.359868 -173.570133 -76.729881 -8.027899 -24.280810 58.164907 -5.444702 -97.675762 -1.710250 2.810069 -7.042984 -13.056612 33.610903 -167.195600 76.650077 14.576184 30.082902 -53.729386 -50.647693 -70.333784 10.000558 -2.159365 2.353414 16.561301 -32.093379 
-279.710193 0.000000 -398.911425 0.000000 -46.654322 0.000000 -7.450079 84.449402 -0.988179 80.225451 -1.821237 -173.486637 179.996207 -2.916595 176.260476 -37.043927 -1.890693 -1.804483 88.828352 0.454040 -5.257374 21.454558 0.003113 0.000016 127.835665 -3.269813 -174.746005 -86.408751 0.583716 2.952172 78.035581 -1.452093 2.613530 21.454548 -0.003094 0.000002 9.662474 0.264921 -2.970968 9.292534 0.767586 -5.911075 8.976233 0.731811 -5.915592 0.654099 11.061994 5.708175 -21.612814 -15.046659 14.041829 -172.776725 -76.929821 -8.838909 -21.282731 59.583210 -0.479828 -103.071195 -0.608115 2.974050 -13.957934 -17.821608 29.222763 -166.084587 77.198623 15.707852 33.426912 -51.096891 -52.203774 -73.416228 8.614054 -2.190247 1.835214 15.604201 -29.236836 
